<mxfile host="Electron" agent="Mozilla/5.0 (Windows NT 10.0; Win64; x64) AppleWebKit/537.36 (KHTML, like Gecko) draw.io/26.2.2 Chrome/134.0.6998.178 Electron/35.1.2 Safari/537.36" version="26.2.2">
  <diagram name="Caso de uso" id="klf10oUWGYBJ3c145egf">
    <mxGraphModel dx="1550" dy="1021" grid="0" gridSize="10" guides="1" tooltips="1" connect="1" arrows="1" fold="1" page="0" pageScale="1" pageWidth="827" pageHeight="1169" math="0" shadow="0">
      <root>
        <mxCell id="0" />
        <mxCell id="1" parent="0" />
        <mxCell id="e3vRcHCR255fR0L8oi5A-1" value="Usuário" style="shape=umlActor;verticalLabelPosition=bottom;verticalAlign=top;html=1;" vertex="1" parent="1">
          <mxGeometry x="-53" y="76" width="30" height="60" as="geometry" />
        </mxCell>
        <mxCell id="e3vRcHCR255fR0L8oi5A-2" value="Administrador" style="shape=umlActor;verticalLabelPosition=bottom;verticalAlign=top;html=1;" vertex="1" parent="1">
          <mxGeometry x="-53" y="223" width="30" height="60" as="geometry" />
        </mxCell>
        <mxCell id="e3vRcHCR255fR0L8oi5A-6" value="Criar atividade" style="ellipse;whiteSpace=wrap;html=1;" vertex="1" parent="1">
          <mxGeometry x="169" y="237" width="140" height="70" as="geometry" />
        </mxCell>
        <mxCell id="e3vRcHCR255fR0L8oi5A-7" value="Fechar atividade atividade" style="ellipse;whiteSpace=wrap;html=1;" vertex="1" parent="1">
          <mxGeometry x="169" y="330" width="140" height="70" as="geometry" />
        </mxCell>
        <mxCell id="e3vRcHCR255fR0L8oi5A-8" value="Vertical Container" style="swimlane;whiteSpace=wrap;html=1;" vertex="1" parent="1">
          <mxGeometry x="87" y="-132" width="285" height="575" as="geometry" />
        </mxCell>
        <mxCell id="e3vRcHCR255fR0L8oi5A-5" value="Marcar presença" style="ellipse;whiteSpace=wrap;html=1;" vertex="1" parent="e3vRcHCR255fR0L8oi5A-8">
          <mxGeometry x="78" y="132" width="140" height="70" as="geometry" />
        </mxCell>
        <mxCell id="e3vRcHCR255fR0L8oi5A-3" value="Buscar atividades" style="ellipse;whiteSpace=wrap;html=1;" vertex="1" parent="e3vRcHCR255fR0L8oi5A-8">
          <mxGeometry x="78" y="252.5" width="140" height="70" as="geometry" />
        </mxCell>
        <mxCell id="e3vRcHCR255fR0L8oi5A-9" value="" style="endArrow=classic;html=1;rounded=0;fontSize=12;startSize=8;endSize=8;curved=1;" edge="1" parent="1" source="e3vRcHCR255fR0L8oi5A-1" target="e3vRcHCR255fR0L8oi5A-3">
          <mxGeometry width="50" height="50" relative="1" as="geometry">
            <mxPoint x="21" y="98" as="sourcePoint" />
            <mxPoint x="71" y="48" as="targetPoint" />
          </mxGeometry>
        </mxCell>
        <mxCell id="e3vRcHCR255fR0L8oi5A-10" value="" style="endArrow=classic;html=1;rounded=0;fontSize=12;startSize=8;endSize=8;curved=1;" edge="1" parent="1" source="e3vRcHCR255fR0L8oi5A-1" target="e3vRcHCR255fR0L8oi5A-5">
          <mxGeometry width="50" height="50" relative="1" as="geometry">
            <mxPoint x="23" y="153" as="sourcePoint" />
            <mxPoint x="73" y="103" as="targetPoint" />
          </mxGeometry>
        </mxCell>
        <mxCell id="e3vRcHCR255fR0L8oi5A-11" value="" style="endArrow=classic;html=1;rounded=0;fontSize=12;startSize=8;endSize=8;curved=1;" edge="1" parent="1" source="e3vRcHCR255fR0L8oi5A-2" target="e3vRcHCR255fR0L8oi5A-6">
          <mxGeometry width="50" height="50" relative="1" as="geometry">
            <mxPoint x="30" y="307" as="sourcePoint" />
            <mxPoint x="80" y="257" as="targetPoint" />
          </mxGeometry>
        </mxCell>
        <mxCell id="e3vRcHCR255fR0L8oi5A-13" value="" style="endArrow=classic;html=1;rounded=0;fontSize=12;startSize=8;endSize=8;curved=1;" edge="1" parent="1" source="e3vRcHCR255fR0L8oi5A-2" target="e3vRcHCR255fR0L8oi5A-7">
          <mxGeometry width="50" height="50" relative="1" as="geometry">
            <mxPoint x="-1" y="342" as="sourcePoint" />
            <mxPoint x="49" y="292" as="targetPoint" />
          </mxGeometry>
        </mxCell>
        <mxCell id="e3vRcHCR255fR0L8oi5A-15" value="" style="endArrow=classic;html=1;rounded=0;fontSize=12;startSize=8;endSize=8;curved=1;" edge="1" parent="1" source="e3vRcHCR255fR0L8oi5A-2" target="e3vRcHCR255fR0L8oi5A-3">
          <mxGeometry width="50" height="50" relative="1" as="geometry">
            <mxPoint x="12" y="213" as="sourcePoint" />
            <mxPoint x="62" y="163" as="targetPoint" />
          </mxGeometry>
        </mxCell>
      </root>
    </mxGraphModel>
  </diagram>
</mxfile>
